<mxfile host="app.diagrams.net" agent="Mozilla/5.0 (Windows NT 10.0; Win64; x64) AppleWebKit/537.36 (KHTML, like Gecko) Chrome/140.0.0.0 Safari/537.36" version="28.2.0">
  <diagram name="Page-1" id="3JU8Kdi7YVTrkMsnLHV1">
    <mxGraphModel dx="5194" dy="3565" grid="1" gridSize="10" guides="1" tooltips="1" connect="1" arrows="1" fold="1" page="1" pageScale="1" pageWidth="2339" pageHeight="3300" math="0" shadow="0">
      <root>
        <mxCell id="0" />
        <mxCell id="1" parent="0" />
        <mxCell id="i0FzcZnS4csEfGver0WR-19" style="edgeStyle=orthogonalEdgeStyle;rounded=1;orthogonalLoop=1;jettySize=auto;html=1;entryX=1;entryY=0.5;entryDx=0;entryDy=0;fillColor=#a20025;strokeColor=#6F0000;" parent="1" source="i0FzcZnS4csEfGver0WR-1" target="i0FzcZnS4csEfGver0WR-13" edge="1">
          <mxGeometry relative="1" as="geometry" />
        </mxCell>
        <mxCell id="i0FzcZnS4csEfGver0WR-33" style="edgeStyle=orthogonalEdgeStyle;rounded=1;orthogonalLoop=1;jettySize=auto;html=1;entryX=0.5;entryY=1;entryDx=0;entryDy=0;fillColor=#a20025;strokeColor=#6F0000;" parent="1" source="i0FzcZnS4csEfGver0WR-1" target="i0FzcZnS4csEfGver0WR-24" edge="1">
          <mxGeometry relative="1" as="geometry" />
        </mxCell>
        <mxCell id="i0FzcZnS4csEfGver0WR-34" style="edgeStyle=orthogonalEdgeStyle;rounded=1;orthogonalLoop=1;jettySize=auto;html=1;exitX=0.25;exitY=0;exitDx=0;exitDy=0;entryX=0.5;entryY=1;entryDx=0;entryDy=0;fillColor=#a20025;strokeColor=#6F0000;" parent="1" source="i0FzcZnS4csEfGver0WR-1" target="i0FzcZnS4csEfGver0WR-21" edge="1">
          <mxGeometry relative="1" as="geometry" />
        </mxCell>
        <mxCell id="i0FzcZnS4csEfGver0WR-35" style="edgeStyle=orthogonalEdgeStyle;rounded=1;orthogonalLoop=1;jettySize=auto;html=1;exitX=0.75;exitY=0;exitDx=0;exitDy=0;entryX=0.5;entryY=1;entryDx=0;entryDy=0;fillColor=#a20025;strokeColor=#6F0000;" parent="1" source="i0FzcZnS4csEfGver0WR-1" target="i0FzcZnS4csEfGver0WR-26" edge="1">
          <mxGeometry relative="1" as="geometry" />
        </mxCell>
        <mxCell id="i0FzcZnS4csEfGver0WR-39" style="edgeStyle=orthogonalEdgeStyle;rounded=1;orthogonalLoop=1;jettySize=auto;html=1;exitX=1;exitY=0.25;exitDx=0;exitDy=0;entryX=0;entryY=0.5;entryDx=0;entryDy=0;fillColor=#a20025;strokeColor=#6F0000;" parent="1" source="i0FzcZnS4csEfGver0WR-1" target="i0FzcZnS4csEfGver0WR-36" edge="1">
          <mxGeometry relative="1" as="geometry">
            <Array as="points">
              <mxPoint x="-3460" y="-2340" />
              <mxPoint x="-3460" y="-2405" />
            </Array>
          </mxGeometry>
        </mxCell>
        <mxCell id="i0FzcZnS4csEfGver0WR-40" style="edgeStyle=orthogonalEdgeStyle;rounded=1;orthogonalLoop=1;jettySize=auto;html=1;exitX=0;exitY=0.25;exitDx=0;exitDy=0;entryX=1;entryY=0.5;entryDx=0;entryDy=0;fillColor=#a20025;strokeColor=#6F0000;" parent="1" source="i0FzcZnS4csEfGver0WR-1" target="i0FzcZnS4csEfGver0WR-14" edge="1">
          <mxGeometry relative="1" as="geometry">
            <Array as="points">
              <mxPoint x="-3700" y="-2340" />
              <mxPoint x="-3700" y="-2405" />
            </Array>
          </mxGeometry>
        </mxCell>
        <mxCell id="i0FzcZnS4csEfGver0WR-1" value="Book" style="rounded=1;whiteSpace=wrap;html=1;fillColor=#e1d5e7;strokeColor=#9673a6;fontFamily=Comic Sans MS;fontSize=15;" parent="1" vertex="1">
          <mxGeometry x="-3640" y="-2355" width="120" height="60" as="geometry" />
        </mxCell>
        <mxCell id="i0FzcZnS4csEfGver0WR-12" style="edgeStyle=orthogonalEdgeStyle;rounded=1;orthogonalLoop=1;jettySize=auto;html=1;entryX=0.5;entryY=1;entryDx=0;entryDy=0;fillColor=#a20025;strokeColor=#6F0000;endArrow=ERmandOne;endFill=0;strokeWidth=2;" parent="1" source="i0FzcZnS4csEfGver0WR-2" target="i0FzcZnS4csEfGver0WR-1" edge="1">
          <mxGeometry relative="1" as="geometry" />
        </mxCell>
        <mxCell id="i0FzcZnS4csEfGver0WR-2" value="" style="triangle;whiteSpace=wrap;html=1;rounded=1;rotation=-90;fillColor=#008a00;strokeColor=#005700;fontColor=#ffffff;fontSize=14;" parent="1" vertex="1">
          <mxGeometry x="-3610" y="-2215" width="60" height="80" as="geometry" />
        </mxCell>
        <mxCell id="i0FzcZnS4csEfGver0WR-9" style="edgeStyle=orthogonalEdgeStyle;rounded=1;orthogonalLoop=1;jettySize=auto;html=1;entryX=0.5;entryY=0;entryDx=0;entryDy=0;fillColor=#a20025;strokeColor=#6F0000;endArrow=ERzeroToOne;endFill=0;strokeWidth=2;" parent="1" source="i0FzcZnS4csEfGver0WR-3" target="i0FzcZnS4csEfGver0WR-4" edge="1">
          <mxGeometry relative="1" as="geometry" />
        </mxCell>
        <mxCell id="i0FzcZnS4csEfGver0WR-10" style="edgeStyle=orthogonalEdgeStyle;rounded=1;orthogonalLoop=1;jettySize=auto;html=1;entryX=0.5;entryY=0;entryDx=0;entryDy=0;fillColor=#a20025;strokeColor=#6F0000;endArrow=ERzeroToOne;endFill=0;strokeWidth=2;" parent="1" source="i0FzcZnS4csEfGver0WR-3" target="i0FzcZnS4csEfGver0WR-5" edge="1">
          <mxGeometry relative="1" as="geometry" />
        </mxCell>
        <mxCell id="i0FzcZnS4csEfGver0WR-3" value="&lt;font style=&quot;font-size: 15px; color: rgb(255, 255, 255);&quot; face=&quot;Comic Sans MS&quot;&gt;IS&lt;/font&gt;" style="text;html=1;align=center;verticalAlign=middle;whiteSpace=wrap;rounded=1;" parent="1" vertex="1">
          <mxGeometry x="-3610" y="-2180" width="60" height="30" as="geometry" />
        </mxCell>
        <mxCell id="i0FzcZnS4csEfGver0WR-42" style="edgeStyle=orthogonalEdgeStyle;rounded=1;orthogonalLoop=1;jettySize=auto;html=1;entryX=1;entryY=0.5;entryDx=0;entryDy=0;fillColor=#a20025;strokeColor=#6F0000;" parent="1" source="i0FzcZnS4csEfGver0WR-4" target="i0FzcZnS4csEfGver0WR-41" edge="1">
          <mxGeometry relative="1" as="geometry" />
        </mxCell>
        <mxCell id="i0FzcZnS4csEfGver0WR-4" value="Patient" style="rounded=1;whiteSpace=wrap;html=1;fillColor=#e1d5e7;strokeColor=#9673a6;fontFamily=Comic Sans MS;fontSize=15;" parent="1" vertex="1">
          <mxGeometry x="-3810" y="-2045" width="120" height="60" as="geometry" />
        </mxCell>
        <mxCell id="i0FzcZnS4csEfGver0WR-44" style="edgeStyle=orthogonalEdgeStyle;rounded=1;orthogonalLoop=1;jettySize=auto;html=1;exitX=1;exitY=0.5;exitDx=0;exitDy=0;entryX=0;entryY=0.5;entryDx=0;entryDy=0;fillColor=#a20025;strokeColor=#6F0000;" parent="1" source="i0FzcZnS4csEfGver0WR-5" target="i0FzcZnS4csEfGver0WR-43" edge="1">
          <mxGeometry relative="1" as="geometry" />
        </mxCell>
        <mxCell id="i0FzcZnS4csEfGver0WR-5" value="Doctor" style="rounded=1;whiteSpace=wrap;html=1;fillColor=#e1d5e7;strokeColor=#9673a6;fontFamily=Comic Sans MS;fontSize=15;" parent="1" vertex="1">
          <mxGeometry x="-3480" y="-2045" width="120" height="60" as="geometry" />
        </mxCell>
        <mxCell id="i0FzcZnS4csEfGver0WR-13" value="&lt;u&gt;ID&lt;/u&gt;" style="ellipse;whiteSpace=wrap;html=1;rounded=1;fillColor=#fff2cc;strokeColor=#d6b656;fontSize=15;fontFamily=Comic Sans MS;" parent="1" vertex="1">
          <mxGeometry x="-3830" y="-2360" width="100" height="70" as="geometry" />
        </mxCell>
        <mxCell id="i0FzcZnS4csEfGver0WR-14" value="title" style="ellipse;whiteSpace=wrap;html=1;rounded=1;fillColor=#fff2cc;strokeColor=#d6b656;fontSize=15;fontFamily=Comic Sans MS;" parent="1" vertex="1">
          <mxGeometry x="-3840" y="-2440" width="100" height="70" as="geometry" />
        </mxCell>
        <mxCell id="i0FzcZnS4csEfGver0WR-21" value="ISBN" style="ellipse;whiteSpace=wrap;html=1;rounded=1;fillColor=#fff2cc;strokeColor=#d6b656;fontSize=15;fontFamily=Comic Sans MS;" parent="1" vertex="1">
          <mxGeometry x="-3740" y="-2500" width="100" height="70" as="geometry" />
        </mxCell>
        <mxCell id="i0FzcZnS4csEfGver0WR-24" value="publicationDt" style="ellipse;whiteSpace=wrap;html=1;rounded=1;fillColor=#fff2cc;strokeColor=#d6b656;fontSize=15;fontFamily=Comic Sans MS;" parent="1" vertex="1">
          <mxGeometry x="-3630" y="-2500" width="100" height="70" as="geometry" />
        </mxCell>
        <mxCell id="i0FzcZnS4csEfGver0WR-26" value="genre" style="ellipse;whiteSpace=wrap;html=1;rounded=1;fillColor=#fff2cc;strokeColor=#d6b656;fontSize=15;fontFamily=Comic Sans MS;" parent="1" vertex="1">
          <mxGeometry x="-3520" y="-2500" width="100" height="70" as="geometry" />
        </mxCell>
        <mxCell id="i0FzcZnS4csEfGver0WR-29" value="" style="ellipse;whiteSpace=wrap;html=1;rounded=1;fillColor=#fff2cc;strokeColor=#d6b656;fontSize=15;fontFamily=Comic Sans MS;" parent="1" vertex="1">
          <mxGeometry x="-3430" y="-2365" width="100" height="70" as="geometry" />
        </mxCell>
        <mxCell id="i0FzcZnS4csEfGver0WR-30" value="authors" style="ellipse;whiteSpace=wrap;html=1;rounded=1;fillColor=#fff2cc;strokeColor=#d6b656;fontSize=15;fontFamily=Comic Sans MS;" parent="1" vertex="1">
          <mxGeometry x="-3425.98" y="-2362.19" width="91.97" height="64.38" as="geometry" />
        </mxCell>
        <mxCell id="i0FzcZnS4csEfGver0WR-32" style="edgeStyle=orthogonalEdgeStyle;rounded=1;orthogonalLoop=1;jettySize=auto;html=1;entryX=0;entryY=0.571;entryDx=0;entryDy=0;entryPerimeter=0;fillColor=#a20025;strokeColor=#6F0000;" parent="1" source="i0FzcZnS4csEfGver0WR-1" target="i0FzcZnS4csEfGver0WR-29" edge="1">
          <mxGeometry relative="1" as="geometry" />
        </mxCell>
        <mxCell id="i0FzcZnS4csEfGver0WR-36" value=" additional &lt;br/&gt;details" style="ellipse;whiteSpace=wrap;html=1;rounded=1;fillColor=#fff2cc;strokeColor=#d6b656;fontSize=15;fontFamily=Comic Sans MS;" parent="1" vertex="1">
          <mxGeometry x="-3434.01" y="-2440" width="100" height="70" as="geometry" />
        </mxCell>
        <mxCell id="i0FzcZnS4csEfGver0WR-41" value="&lt;u&gt;Patient&lt;/u&gt;&lt;u style=&quot;background-color: transparent; color: light-dark(rgb(0, 0, 0), rgb(255, 255, 255));&quot;&gt;ID&lt;/u&gt;" style="ellipse;whiteSpace=wrap;html=1;rounded=1;fillColor=#fff2cc;strokeColor=#d6b656;fontSize=15;fontFamily=Comic Sans MS;" parent="1" vertex="1">
          <mxGeometry x="-3970" y="-2050" width="100" height="70" as="geometry" />
        </mxCell>
        <mxCell id="i0FzcZnS4csEfGver0WR-43" value="&lt;u&gt;DoctorID&lt;/u&gt;" style="ellipse;whiteSpace=wrap;html=1;rounded=1;fillColor=#fff2cc;strokeColor=#d6b656;fontSize=15;fontFamily=Comic Sans MS;" parent="1" vertex="1">
          <mxGeometry x="-3300" y="-2050" width="100" height="70" as="geometry" />
        </mxCell>
        <mxCell id="i0FzcZnS4csEfGver0WR-66" style="edgeStyle=orthogonalEdgeStyle;rounded=1;orthogonalLoop=1;jettySize=auto;html=1;exitX=0.25;exitY=0;exitDx=0;exitDy=0;fillColor=#a20025;strokeColor=#6F0000;" parent="1" source="i0FzcZnS4csEfGver0WR-45" target="i0FzcZnS4csEfGver0WR-60" edge="1">
          <mxGeometry relative="1" as="geometry" />
        </mxCell>
        <mxCell id="i0FzcZnS4csEfGver0WR-67" style="edgeStyle=orthogonalEdgeStyle;rounded=1;orthogonalLoop=1;jettySize=auto;html=1;exitX=0.75;exitY=0;exitDx=0;exitDy=0;entryX=0.5;entryY=1;entryDx=0;entryDy=0;fillColor=#a20025;strokeColor=#6F0000;" parent="1" source="i0FzcZnS4csEfGver0WR-45" target="i0FzcZnS4csEfGver0WR-62" edge="1">
          <mxGeometry relative="1" as="geometry" />
        </mxCell>
        <mxCell id="i0FzcZnS4csEfGver0WR-69" style="edgeStyle=orthogonalEdgeStyle;rounded=1;orthogonalLoop=1;jettySize=auto;html=1;exitX=0.25;exitY=1;exitDx=0;exitDy=0;entryX=1;entryY=0.5;entryDx=0;entryDy=0;fillColor=#a20025;strokeColor=#6F0000;" parent="1" source="i0FzcZnS4csEfGver0WR-45" target="i0FzcZnS4csEfGver0WR-68" edge="1">
          <mxGeometry relative="1" as="geometry" />
        </mxCell>
        <mxCell id="i0FzcZnS4csEfGver0WR-45" value="Appointment" style="rounded=1;whiteSpace=wrap;html=1;fillColor=#e1d5e7;strokeColor=#9673a6;fontFamily=Comic Sans MS;fontSize=15;" parent="1" vertex="1">
          <mxGeometry x="-3640" y="-1790" width="120" height="60" as="geometry" />
        </mxCell>
        <mxCell id="i0FzcZnS4csEfGver0WR-51" style="edgeStyle=orthogonalEdgeStyle;rounded=1;orthogonalLoop=1;jettySize=auto;html=1;entryX=0.5;entryY=1;entryDx=0;entryDy=0;strokeWidth=2;fillColor=#a20025;strokeColor=#6F0000;endArrow=ERmandOne;endFill=0;" parent="1" source="i0FzcZnS4csEfGver0WR-47" target="i0FzcZnS4csEfGver0WR-4" edge="1">
          <mxGeometry relative="1" as="geometry" />
        </mxCell>
        <mxCell id="i0FzcZnS4csEfGver0WR-58" style="edgeStyle=orthogonalEdgeStyle;rounded=1;orthogonalLoop=1;jettySize=auto;html=1;entryX=0;entryY=0.5;entryDx=0;entryDy=0;exitX=0.5;exitY=1;exitDx=0;exitDy=0;strokeWidth=2;fillColor=#a20025;strokeColor=#6F0000;endArrow=ERzeroToMany;endFill=0;" parent="1" source="i0FzcZnS4csEfGver0WR-47" target="i0FzcZnS4csEfGver0WR-45" edge="1">
          <mxGeometry relative="1" as="geometry" />
        </mxCell>
        <mxCell id="i0FzcZnS4csEfGver0WR-47" value="Booking" style="rhombus;whiteSpace=wrap;html=1;fontSize=15;fontFamily=Comic Sans MS;fillColor=#6a00ff;strokeColor=#3700CC;rounded=1;fontColor=#ffffff;" parent="1" vertex="1">
          <mxGeometry x="-3790" y="-1930" width="80" height="80" as="geometry" />
        </mxCell>
        <mxCell id="i0FzcZnS4csEfGver0WR-57" style="edgeStyle=orthogonalEdgeStyle;rounded=1;orthogonalLoop=1;jettySize=auto;html=1;entryX=0.5;entryY=1;entryDx=0;entryDy=0;strokeWidth=2;fillColor=#a20025;strokeColor=#6F0000;endArrow=ERmandOne;endFill=0;" parent="1" source="i0FzcZnS4csEfGver0WR-53" target="i0FzcZnS4csEfGver0WR-5" edge="1">
          <mxGeometry relative="1" as="geometry" />
        </mxCell>
        <mxCell id="i0FzcZnS4csEfGver0WR-59" style="edgeStyle=orthogonalEdgeStyle;rounded=1;orthogonalLoop=1;jettySize=auto;html=1;entryX=1;entryY=0.5;entryDx=0;entryDy=0;exitX=0.5;exitY=1;exitDx=0;exitDy=0;strokeWidth=2;fillColor=#a20025;strokeColor=#6F0000;endArrow=ERzeroToMany;endFill=0;" parent="1" source="i0FzcZnS4csEfGver0WR-53" target="i0FzcZnS4csEfGver0WR-45" edge="1">
          <mxGeometry relative="1" as="geometry" />
        </mxCell>
        <mxCell id="i0FzcZnS4csEfGver0WR-53" value="Receive" style="rhombus;whiteSpace=wrap;html=1;fontSize=15;fontFamily=Comic Sans MS;fillColor=#6a00ff;strokeColor=#3700CC;rounded=1;fontColor=#ffffff;" parent="1" vertex="1">
          <mxGeometry x="-3460" y="-1930" width="80" height="80" as="geometry" />
        </mxCell>
        <mxCell id="i0FzcZnS4csEfGver0WR-60" value="&lt;u&gt;&lt;font style=&quot;font-size: 12px;&quot;&gt;AppointmentID&lt;/font&gt;&lt;/u&gt;" style="ellipse;whiteSpace=wrap;html=1;rounded=1;fillColor=#fff2cc;strokeColor=#d6b656;fontSize=15;fontFamily=Comic Sans MS;" parent="1" vertex="1">
          <mxGeometry x="-3700" y="-1900" width="100" height="70" as="geometry" />
        </mxCell>
        <mxCell id="i0FzcZnS4csEfGver0WR-62" value="&lt;font&gt;DateTime&lt;/font&gt;" style="ellipse;whiteSpace=wrap;html=1;rounded=1;fillColor=#fff2cc;strokeColor=#d6b656;fontSize=15;fontFamily=Comic Sans MS;" parent="1" vertex="1">
          <mxGeometry x="-3560" y="-1900" width="100" height="70" as="geometry" />
        </mxCell>
        <mxCell id="i0FzcZnS4csEfGver0WR-68" value="&lt;font&gt;Status&lt;/font&gt;" style="ellipse;whiteSpace=wrap;html=1;rounded=1;fillColor=#fff2cc;strokeColor=#d6b656;fontSize=15;fontFamily=Comic Sans MS;" parent="1" vertex="1">
          <mxGeometry x="-3760" y="-1720" width="100" height="70" as="geometry" />
        </mxCell>
        <mxCell id="i0FzcZnS4csEfGver0WR-83" style="edgeStyle=orthogonalEdgeStyle;rounded=1;orthogonalLoop=1;jettySize=auto;html=1;exitX=0;exitY=0.75;exitDx=0;exitDy=0;entryX=0.5;entryY=0;entryDx=0;entryDy=0;fillColor=#a20025;strokeColor=#6F0000;" parent="1" source="i0FzcZnS4csEfGver0WR-70" target="i0FzcZnS4csEfGver0WR-77" edge="1">
          <mxGeometry relative="1" as="geometry" />
        </mxCell>
        <mxCell id="i0FzcZnS4csEfGver0WR-84" style="edgeStyle=orthogonalEdgeStyle;rounded=1;orthogonalLoop=1;jettySize=auto;html=1;exitX=1;exitY=0.75;exitDx=0;exitDy=0;entryX=0.5;entryY=0;entryDx=0;entryDy=0;fillColor=#a20025;strokeColor=#6F0000;" parent="1" source="i0FzcZnS4csEfGver0WR-70" target="i0FzcZnS4csEfGver0WR-79" edge="1">
          <mxGeometry relative="1" as="geometry" />
        </mxCell>
        <mxCell id="i0FzcZnS4csEfGver0WR-86" style="edgeStyle=orthogonalEdgeStyle;rounded=1;orthogonalLoop=1;jettySize=auto;html=1;exitX=0.25;exitY=1;exitDx=0;exitDy=0;entryX=1;entryY=0.5;entryDx=0;entryDy=0;fillColor=#a20025;strokeColor=#6F0000;" parent="1" source="i0FzcZnS4csEfGver0WR-70" target="i0FzcZnS4csEfGver0WR-80" edge="1">
          <mxGeometry relative="1" as="geometry" />
        </mxCell>
        <mxCell id="i0FzcZnS4csEfGver0WR-87" style="edgeStyle=orthogonalEdgeStyle;rounded=1;orthogonalLoop=1;jettySize=auto;html=1;entryX=0.5;entryY=0;entryDx=0;entryDy=0;fillColor=#a20025;strokeColor=#6F0000;" parent="1" source="i0FzcZnS4csEfGver0WR-70" target="i0FzcZnS4csEfGver0WR-81" edge="1">
          <mxGeometry relative="1" as="geometry">
            <Array as="points">
              <mxPoint x="-3780" y="-1400" />
              <mxPoint x="-3780" y="-1300" />
            </Array>
          </mxGeometry>
        </mxCell>
        <mxCell id="i0FzcZnS4csEfGver0WR-70" value="Medical Record" style="rounded=1;whiteSpace=wrap;html=1;fillColor=#e1d5e7;strokeColor=#9673a6;fontFamily=Comic Sans MS;fontSize=15;" parent="1" vertex="1">
          <mxGeometry x="-3640" y="-1440" width="120" height="60" as="geometry" />
        </mxCell>
        <mxCell id="i0FzcZnS4csEfGver0WR-73" style="edgeStyle=orthogonalEdgeStyle;rounded=1;orthogonalLoop=1;jettySize=auto;html=1;entryX=0.5;entryY=0;entryDx=0;entryDy=0;strokeWidth=2;fillColor=#a20025;strokeColor=#6F0000;endArrow=ERzeroToOne;endFill=0;" parent="1" source="i0FzcZnS4csEfGver0WR-71" target="i0FzcZnS4csEfGver0WR-70" edge="1">
          <mxGeometry relative="1" as="geometry" />
        </mxCell>
        <mxCell id="i0FzcZnS4csEfGver0WR-74" style="edgeStyle=orthogonalEdgeStyle;rounded=1;orthogonalLoop=1;jettySize=auto;html=1;entryX=0.5;entryY=1;entryDx=0;entryDy=0;strokeWidth=2;fillColor=#a20025;strokeColor=#6F0000;endArrow=ERmandOne;endFill=0;" parent="1" source="i0FzcZnS4csEfGver0WR-71" target="i0FzcZnS4csEfGver0WR-45" edge="1">
          <mxGeometry relative="1" as="geometry" />
        </mxCell>
        <mxCell id="i0FzcZnS4csEfGver0WR-71" value="has" style="rhombus;whiteSpace=wrap;html=1;fontSize=15;fontFamily=Comic Sans MS;fillColor=#6a00ff;strokeColor=#3700CC;rounded=1;fontColor=#ffffff;" parent="1" vertex="1">
          <mxGeometry x="-3620" y="-1630" width="80" height="80" as="geometry" />
        </mxCell>
        <mxCell id="i0FzcZnS4csEfGver0WR-77" value="&lt;u&gt;&lt;font&gt;MRID&lt;/font&gt;&lt;/u&gt;" style="ellipse;whiteSpace=wrap;html=1;rounded=1;fillColor=#fff2cc;strokeColor=#d6b656;fontSize=15;fontFamily=Comic Sans MS;" parent="1" vertex="1">
          <mxGeometry x="-3740" y="-1350" width="100" height="70" as="geometry" />
        </mxCell>
        <mxCell id="i0FzcZnS4csEfGver0WR-79" value="Description" style="ellipse;whiteSpace=wrap;html=1;rounded=1;fillColor=#fff2cc;strokeColor=#d6b656;fontSize=15;fontFamily=Comic Sans MS;" parent="1" vertex="1">
          <mxGeometry x="-3525.98" y="-1350" width="100" height="70" as="geometry" />
        </mxCell>
        <mxCell id="i0FzcZnS4csEfGver0WR-80" value="Diagnosis" style="ellipse;whiteSpace=wrap;html=1;rounded=1;fillColor=#fff2cc;strokeColor=#d6b656;fontSize=15;fontFamily=Comic Sans MS;" parent="1" vertex="1">
          <mxGeometry x="-3740" y="-1260" width="100" height="70" as="geometry" />
        </mxCell>
        <mxCell id="i0FzcZnS4csEfGver0WR-81" value="Medications" style="ellipse;whiteSpace=wrap;html=1;rounded=1;fillColor=#fff2cc;strokeColor=#d6b656;fontSize=15;fontFamily=Comic Sans MS;" parent="1" vertex="1">
          <mxGeometry x="-3831" y="-1300" width="100" height="70" as="geometry" />
        </mxCell>
        <mxCell id="i0FzcZnS4csEfGver0WR-82" value="ADDNotes" style="ellipse;whiteSpace=wrap;html=1;rounded=1;fillColor=#fff2cc;strokeColor=#d6b656;fontSize=15;fontFamily=Comic Sans MS;" parent="1" vertex="1">
          <mxGeometry x="-3520" y="-1260" width="100" height="70" as="geometry" />
        </mxCell>
        <mxCell id="i0FzcZnS4csEfGver0WR-85" style="edgeStyle=orthogonalEdgeStyle;rounded=1;orthogonalLoop=1;jettySize=auto;html=1;exitX=0.75;exitY=1;exitDx=0;exitDy=0;entryX=0;entryY=0.5;entryDx=0;entryDy=0;fillColor=#a20025;strokeColor=#6F0000;" parent="1" source="i0FzcZnS4csEfGver0WR-70" target="i0FzcZnS4csEfGver0WR-82" edge="1">
          <mxGeometry relative="1" as="geometry" />
        </mxCell>
        <mxCell id="i0FzcZnS4csEfGver0WR-93" style="edgeStyle=orthogonalEdgeStyle;rounded=1;orthogonalLoop=1;jettySize=auto;html=1;entryX=1;entryY=0.5;entryDx=0;entryDy=0;exitX=0.5;exitY=1;exitDx=0;exitDy=0;fillColor=#a20025;strokeColor=#6F0000;strokeWidth=2;endArrow=ERoneToMany;endFill=0;" parent="1" source="i0FzcZnS4csEfGver0WR-89" target="i0FzcZnS4csEfGver0WR-70" edge="1">
          <mxGeometry relative="1" as="geometry" />
        </mxCell>
        <mxCell id="i0FzcZnS4csEfGver0WR-89" value="Do" style="rhombus;whiteSpace=wrap;html=1;fontSize=15;fontFamily=Comic Sans MS;fillColor=#6a00ff;strokeColor=#3700CC;rounded=1;fontColor=#ffffff;" parent="1" vertex="1">
          <mxGeometry x="-3418" y="-1630" width="80" height="80" as="geometry" />
        </mxCell>
        <mxCell id="i0FzcZnS4csEfGver0WR-91" style="edgeStyle=orthogonalEdgeStyle;rounded=1;orthogonalLoop=1;jettySize=auto;html=1;entryX=0.861;entryY=0.95;entryDx=0;entryDy=0;entryPerimeter=0;fillColor=#a20025;strokeColor=#6F0000;strokeWidth=2;endArrow=ERmandOne;endFill=0;" parent="1" source="i0FzcZnS4csEfGver0WR-89" target="i0FzcZnS4csEfGver0WR-5" edge="1">
          <mxGeometry relative="1" as="geometry" />
        </mxCell>
        <mxCell id="i0FzcZnS4csEfGver0WR-95" style="edgeStyle=orthogonalEdgeStyle;rounded=1;orthogonalLoop=1;jettySize=auto;html=1;entryX=0.151;entryY=1.002;entryDx=0;entryDy=0;entryPerimeter=0;fillColor=#a20025;strokeColor=#6F0000;strokeWidth=2;endArrow=ERmandOne;endFill=0;" parent="1" source="i0FzcZnS4csEfGver0WR-94" target="i0FzcZnS4csEfGver0WR-4" edge="1">
          <mxGeometry relative="1" as="geometry" />
        </mxCell>
        <mxCell id="i0FzcZnS4csEfGver0WR-96" style="edgeStyle=orthogonalEdgeStyle;rounded=1;orthogonalLoop=1;jettySize=auto;html=1;entryX=0;entryY=0.5;entryDx=0;entryDy=0;exitX=0.5;exitY=1;exitDx=0;exitDy=0;fillColor=#a20025;strokeColor=#6F0000;strokeWidth=2;endArrow=ERoneToMany;endFill=0;" parent="1" source="i0FzcZnS4csEfGver0WR-94" target="i0FzcZnS4csEfGver0WR-70" edge="1">
          <mxGeometry relative="1" as="geometry" />
        </mxCell>
        <mxCell id="i0FzcZnS4csEfGver0WR-94" value="has" style="rhombus;whiteSpace=wrap;html=1;fontSize=15;fontFamily=Comic Sans MS;fillColor=#6a00ff;strokeColor=#3700CC;rounded=1;fontColor=#ffffff;" parent="1" vertex="1">
          <mxGeometry x="-3831" y="-1630" width="80" height="80" as="geometry" />
        </mxCell>
        <mxCell id="i0FzcZnS4csEfGver0WR-112" style="edgeStyle=orthogonalEdgeStyle;rounded=1;orthogonalLoop=1;jettySize=auto;html=1;entryX=1;entryY=0.5;entryDx=0;entryDy=0;fillColor=#a20025;strokeColor=#6F0000;" parent="1" source="i0FzcZnS4csEfGver0WR-99" target="i0FzcZnS4csEfGver0WR-104" edge="1">
          <mxGeometry relative="1" as="geometry" />
        </mxCell>
        <mxCell id="i0FzcZnS4csEfGver0WR-113" style="edgeStyle=orthogonalEdgeStyle;rounded=1;orthogonalLoop=1;jettySize=auto;html=1;entryX=0;entryY=0.5;entryDx=0;entryDy=0;fillColor=#a20025;strokeColor=#6F0000;" parent="1" source="i0FzcZnS4csEfGver0WR-99" target="i0FzcZnS4csEfGver0WR-110" edge="1">
          <mxGeometry relative="1" as="geometry" />
        </mxCell>
        <mxCell id="i0FzcZnS4csEfGver0WR-117" style="edgeStyle=orthogonalEdgeStyle;rounded=1;orthogonalLoop=1;jettySize=auto;html=1;fillColor=#a20025;strokeColor=#6F0000;" parent="1" source="i0FzcZnS4csEfGver0WR-99" edge="1">
          <mxGeometry relative="1" as="geometry">
            <mxPoint x="-3640" y="-830" as="targetPoint" />
          </mxGeometry>
        </mxCell>
        <mxCell id="i0FzcZnS4csEfGver0WR-118" style="edgeStyle=orthogonalEdgeStyle;rounded=1;orthogonalLoop=1;jettySize=auto;html=1;entryX=0.5;entryY=0;entryDx=0;entryDy=0;fillColor=#a20025;strokeColor=#6F0000;" parent="1" source="i0FzcZnS4csEfGver0WR-99" target="i0FzcZnS4csEfGver0WR-108" edge="1">
          <mxGeometry relative="1" as="geometry">
            <mxPoint x="-3520" y="-830" as="targetPoint" />
          </mxGeometry>
        </mxCell>
        <mxCell id="i0FzcZnS4csEfGver0WR-121" style="edgeStyle=orthogonalEdgeStyle;rounded=1;orthogonalLoop=1;jettySize=auto;html=1;exitX=1;exitY=0.75;exitDx=0;exitDy=0;entryX=0;entryY=0.5;entryDx=0;entryDy=0;fillColor=#a20025;strokeColor=#6F0000;" parent="1" source="i0FzcZnS4csEfGver0WR-99" target="i0FzcZnS4csEfGver0WR-109" edge="1">
          <mxGeometry relative="1" as="geometry" />
        </mxCell>
        <mxCell id="i0FzcZnS4csEfGver0WR-123" style="edgeStyle=orthogonalEdgeStyle;rounded=1;orthogonalLoop=1;jettySize=auto;html=1;exitX=0;exitY=0.75;exitDx=0;exitDy=0;entryX=1;entryY=0.5;entryDx=0;entryDy=0;fillColor=#a20025;strokeColor=#6F0000;" parent="1" source="i0FzcZnS4csEfGver0WR-99" target="i0FzcZnS4csEfGver0WR-105" edge="1">
          <mxGeometry relative="1" as="geometry" />
        </mxCell>
        <mxCell id="i0FzcZnS4csEfGver0WR-124" style="edgeStyle=orthogonalEdgeStyle;rounded=1;orthogonalLoop=1;jettySize=auto;html=1;exitX=0.75;exitY=0;exitDx=0;exitDy=0;entryX=0;entryY=0.5;entryDx=0;entryDy=0;" parent="1" source="i0FzcZnS4csEfGver0WR-99" target="i0FzcZnS4csEfGver0WR-111" edge="1">
          <mxGeometry relative="1" as="geometry" />
        </mxCell>
        <mxCell id="i0FzcZnS4csEfGver0WR-99" value="Prescription" style="rounded=1;whiteSpace=wrap;html=1;fillColor=#e1d5e7;strokeColor=#9673a6;fontFamily=Comic Sans MS;fontSize=15;" parent="1" vertex="1">
          <mxGeometry x="-3640" y="-970" width="120" height="60" as="geometry" />
        </mxCell>
        <mxCell id="i0FzcZnS4csEfGver0WR-102" style="edgeStyle=orthogonalEdgeStyle;rounded=1;orthogonalLoop=1;jettySize=auto;html=1;entryX=0.5;entryY=0;entryDx=0;entryDy=0;fillColor=#a20025;strokeColor=#6F0000;strokeWidth=2;endArrow=ERzeroToOne;endFill=0;" parent="1" source="i0FzcZnS4csEfGver0WR-100" target="i0FzcZnS4csEfGver0WR-99" edge="1">
          <mxGeometry relative="1" as="geometry" />
        </mxCell>
        <mxCell id="i0FzcZnS4csEfGver0WR-103" style="edgeStyle=orthogonalEdgeStyle;rounded=1;orthogonalLoop=1;jettySize=auto;html=1;fillColor=#a20025;strokeColor=#6F0000;strokeWidth=2;endArrow=ERmandOne;endFill=0;" parent="1" source="i0FzcZnS4csEfGver0WR-100" target="i0FzcZnS4csEfGver0WR-70" edge="1">
          <mxGeometry relative="1" as="geometry" />
        </mxCell>
        <mxCell id="i0FzcZnS4csEfGver0WR-100" value="has" style="rhombus;whiteSpace=wrap;html=1;fontSize=15;fontFamily=Comic Sans MS;fillColor=#6a00ff;strokeColor=#3700CC;rounded=1;fontColor=#ffffff;" parent="1" vertex="1">
          <mxGeometry x="-3620" y="-1200" width="80" height="80" as="geometry" />
        </mxCell>
        <mxCell id="i0FzcZnS4csEfGver0WR-104" value="&lt;u&gt;ID&lt;/u&gt;" style="ellipse;whiteSpace=wrap;html=1;rounded=1;fillColor=#fff2cc;strokeColor=#d6b656;fontSize=15;fontFamily=Comic Sans MS;" parent="1" vertex="1">
          <mxGeometry x="-3800" y="-975" width="100" height="70" as="geometry" />
        </mxCell>
        <mxCell id="i0FzcZnS4csEfGver0WR-105" value="" style="ellipse;whiteSpace=wrap;html=1;rounded=1;fillColor=#fff2cc;strokeColor=#d6b656;fontSize=15;fontFamily=Comic Sans MS;" parent="1" vertex="1">
          <mxGeometry x="-3790" y="-890" width="100" height="70" as="geometry" />
        </mxCell>
        <mxCell id="i0FzcZnS4csEfGver0WR-106" value="&lt;font style=&quot;font-size: 13px;&quot;&gt;medication name&lt;/font&gt;" style="ellipse;whiteSpace=wrap;html=1;rounded=1;fillColor=#fff2cc;strokeColor=#d6b656;fontSize=15;fontFamily=Comic Sans MS;" parent="1" vertex="1">
          <mxGeometry x="-3786.41" y="-885.9299999999998" width="92.81" height="61.87" as="geometry" />
        </mxCell>
        <mxCell id="i0FzcZnS4csEfGver0WR-107" value="dosage" style="ellipse;whiteSpace=wrap;html=1;rounded=1;fillColor=#fff2cc;strokeColor=#d6b656;fontSize=15;fontFamily=Comic Sans MS;" parent="1" vertex="1">
          <mxGeometry x="-3690" y="-830" width="100" height="70" as="geometry" />
        </mxCell>
        <mxCell id="i0FzcZnS4csEfGver0WR-108" value="frequency" style="ellipse;whiteSpace=wrap;html=1;rounded=1;fillColor=#fff2cc;strokeColor=#d6b656;fontSize=15;fontFamily=Comic Sans MS;" parent="1" vertex="1">
          <mxGeometry x="-3570" y="-830" width="100" height="70" as="geometry" />
        </mxCell>
        <mxCell id="i0FzcZnS4csEfGver0WR-109" value="startDate" style="ellipse;whiteSpace=wrap;html=1;rounded=1;fillColor=#fff2cc;strokeColor=#d6b656;fontSize=15;fontFamily=Comic Sans MS;" parent="1" vertex="1">
          <mxGeometry x="-3470" y="-890" width="100" height="70" as="geometry" />
        </mxCell>
        <mxCell id="i0FzcZnS4csEfGver0WR-110" value="endDate" style="ellipse;whiteSpace=wrap;html=1;rounded=1;fillColor=#fff2cc;strokeColor=#d6b656;fontSize=15;fontFamily=Comic Sans MS;" parent="1" vertex="1">
          <mxGeometry x="-3460" y="-975" width="100" height="70" as="geometry" />
        </mxCell>
        <mxCell id="i0FzcZnS4csEfGver0WR-111" value="instructions" style="ellipse;whiteSpace=wrap;html=1;rounded=1;fillColor=#fff2cc;strokeColor=#d6b656;fontSize=15;fontFamily=Comic Sans MS;" parent="1" vertex="1">
          <mxGeometry x="-3525.98" y="-1060" width="100" height="70" as="geometry" />
        </mxCell>
        <mxCell id="i0FzcZnS4csEfGver0WR-131" style="edgeStyle=orthogonalEdgeStyle;rounded=1;orthogonalLoop=1;jettySize=auto;html=1;entryX=0.5;entryY=0;entryDx=0;entryDy=0;fillColor=#a20025;strokeColor=#6F0000;" parent="1" source="i0FzcZnS4csEfGver0WR-125" target="i0FzcZnS4csEfGver0WR-130" edge="1">
          <mxGeometry relative="1" as="geometry" />
        </mxCell>
        <mxCell id="i0FzcZnS4csEfGver0WR-133" style="edgeStyle=orthogonalEdgeStyle;rounded=1;orthogonalLoop=1;jettySize=auto;html=1;exitX=0.75;exitY=1;exitDx=0;exitDy=0;entryX=0;entryY=0.5;entryDx=0;entryDy=0;fillColor=#a20025;strokeColor=#6F0000;" parent="1" source="i0FzcZnS4csEfGver0WR-125" target="i0FzcZnS4csEfGver0WR-132" edge="1">
          <mxGeometry relative="1" as="geometry" />
        </mxCell>
        <mxCell id="i0FzcZnS4csEfGver0WR-135" style="edgeStyle=orthogonalEdgeStyle;rounded=1;orthogonalLoop=1;jettySize=auto;html=1;entryX=0;entryY=0.5;entryDx=0;entryDy=0;fillColor=#a20025;strokeColor=#6F0000;" parent="1" source="i0FzcZnS4csEfGver0WR-125" target="i0FzcZnS4csEfGver0WR-134" edge="1">
          <mxGeometry relative="1" as="geometry" />
        </mxCell>
        <mxCell id="i0FzcZnS4csEfGver0WR-137" style="edgeStyle=orthogonalEdgeStyle;rounded=1;orthogonalLoop=1;jettySize=auto;html=1;exitX=0.75;exitY=0;exitDx=0;exitDy=0;entryX=0;entryY=0.5;entryDx=0;entryDy=0;fillColor=#a20025;strokeColor=#6F0000;" parent="1" source="i0FzcZnS4csEfGver0WR-125" target="i0FzcZnS4csEfGver0WR-136" edge="1">
          <mxGeometry relative="1" as="geometry" />
        </mxCell>
        <mxCell id="i0FzcZnS4csEfGver0WR-125" value="Payment" style="rounded=1;whiteSpace=wrap;html=1;fillColor=#e1d5e7;strokeColor=#9673a6;fontFamily=Comic Sans MS;fontSize=15;" parent="1" vertex="1">
          <mxGeometry x="-3110" y="-1720" width="120" height="60" as="geometry" />
        </mxCell>
        <mxCell id="i0FzcZnS4csEfGver0WR-128" style="edgeStyle=orthogonalEdgeStyle;rounded=1;orthogonalLoop=1;jettySize=auto;html=1;entryX=0.75;entryY=1;entryDx=0;entryDy=0;fillColor=#a20025;strokeColor=#6F0000;strokeWidth=2;endArrow=ERmandOne;endFill=0;" parent="1" source="i0FzcZnS4csEfGver0WR-126" target="i0FzcZnS4csEfGver0WR-45" edge="1">
          <mxGeometry relative="1" as="geometry" />
        </mxCell>
        <mxCell id="i0FzcZnS4csEfGver0WR-129" style="edgeStyle=orthogonalEdgeStyle;rounded=1;orthogonalLoop=1;jettySize=auto;html=1;entryX=0;entryY=0.5;entryDx=0;entryDy=0;fillColor=#a20025;strokeColor=#6F0000;strokeWidth=2;endArrow=ERzeroToOne;endFill=0;" parent="1" source="i0FzcZnS4csEfGver0WR-126" target="i0FzcZnS4csEfGver0WR-125" edge="1">
          <mxGeometry relative="1" as="geometry" />
        </mxCell>
        <mxCell id="i0FzcZnS4csEfGver0WR-126" value="pay" style="rhombus;whiteSpace=wrap;html=1;fontSize=15;fontFamily=Comic Sans MS;fillColor=#6a00ff;strokeColor=#3700CC;rounded=1;fontColor=#ffffff;" parent="1" vertex="1">
          <mxGeometry x="-3300" y="-1730" width="80" height="80" as="geometry" />
        </mxCell>
        <mxCell id="i0FzcZnS4csEfGver0WR-130" value="&lt;u&gt;&lt;font&gt;ID&lt;/font&gt;&lt;/u&gt;" style="ellipse;whiteSpace=wrap;html=1;rounded=1;fillColor=#fff2cc;strokeColor=#d6b656;fontSize=15;fontFamily=Comic Sans MS;" parent="1" vertex="1">
          <mxGeometry x="-3100" y="-1600" width="100" height="70" as="geometry" />
        </mxCell>
        <mxCell id="i0FzcZnS4csEfGver0WR-132" value="&lt;font style=&quot;&quot;&gt;Method&lt;/font&gt;" style="ellipse;whiteSpace=wrap;html=1;rounded=1;fillColor=#fff2cc;strokeColor=#d6b656;fontSize=15;fontFamily=Comic Sans MS;" parent="1" vertex="1">
          <mxGeometry x="-2980" y="-1650" width="100" height="70" as="geometry" />
        </mxCell>
        <mxCell id="i0FzcZnS4csEfGver0WR-134" value="&lt;font style=&quot;&quot;&gt;Amount&lt;/font&gt;" style="ellipse;whiteSpace=wrap;html=1;rounded=1;fillColor=#fff2cc;strokeColor=#d6b656;fontSize=15;fontFamily=Comic Sans MS;" parent="1" vertex="1">
          <mxGeometry x="-2940" y="-1725" width="100" height="70" as="geometry" />
        </mxCell>
        <mxCell id="i0FzcZnS4csEfGver0WR-136" value="&lt;font style=&quot;&quot;&gt;ADDNotes&lt;/font&gt;" style="ellipse;whiteSpace=wrap;html=1;rounded=1;fillColor=#fff2cc;strokeColor=#d6b656;fontSize=15;fontFamily=Comic Sans MS;" parent="1" vertex="1">
          <mxGeometry x="-2980" y="-1800" width="100" height="70" as="geometry" />
        </mxCell>
        <mxCell id="i0FzcZnS4csEfGver0WR-138" value="&lt;font style=&quot;font-size: 30px;&quot; face=&quot;Comic Sans MS&quot;&gt;Simple Clinic&lt;/font&gt;" style="text;html=1;align=center;verticalAlign=middle;whiteSpace=wrap;rounded=0;" parent="1" vertex="1">
          <mxGeometry x="-3670" y="-2640" width="180" height="30" as="geometry" />
        </mxCell>
        <mxCell id="i0FzcZnS4csEfGver0WR-139" value="&lt;font face=&quot;Comic Sans MS&quot;&gt;&lt;span style=&quot;font-size: 25px;&quot;&gt;كتاب&lt;/span&gt;&lt;/font&gt;" style="text;html=1;align=center;verticalAlign=middle;whiteSpace=wrap;rounded=0;dashed=1;strokeColor=default;" parent="1" vertex="1">
          <mxGeometry x="-3770" y="-2245" width="110" height="30" as="geometry" />
        </mxCell>
        <mxCell id="i0FzcZnS4csEfGver0WR-140" value="" style="endArrow=classic;html=1;rounded=1;" parent="1" edge="1">
          <mxGeometry width="50" height="50" relative="1" as="geometry">
            <mxPoint x="-3670" y="-2250" as="sourcePoint" />
            <mxPoint x="-3640" y="-2290" as="targetPoint" />
          </mxGeometry>
        </mxCell>
        <mxCell id="i0FzcZnS4csEfGver0WR-141" value="&lt;font style=&quot;font-size: 25px;&quot; face=&quot;Comic Sans MS&quot;&gt;مريض&lt;/font&gt;" style="text;html=1;align=center;verticalAlign=middle;whiteSpace=wrap;rounded=0;dashed=1;strokeColor=default;" parent="1" vertex="1">
          <mxGeometry x="-3910" y="-2130" width="110" height="30" as="geometry" />
        </mxCell>
        <mxCell id="i0FzcZnS4csEfGver0WR-143" value="" style="endArrow=classic;html=1;rounded=1;exitX=0.905;exitY=1.074;exitDx=0;exitDy=0;exitPerimeter=0;" parent="1" source="i0FzcZnS4csEfGver0WR-141" edge="1">
          <mxGeometry width="50" height="50" relative="1" as="geometry">
            <mxPoint x="-3800" y="-2050" as="sourcePoint" />
            <mxPoint x="-3790" y="-2050" as="targetPoint" />
          </mxGeometry>
        </mxCell>
        <mxCell id="i0FzcZnS4csEfGver0WR-144" value="&lt;font style=&quot;font-size: 25px;&quot; face=&quot;Comic Sans MS&quot;&gt;دكتور&lt;/font&gt;" style="text;html=1;align=center;verticalAlign=middle;whiteSpace=wrap;rounded=0;dashed=1;strokeColor=default;" parent="1" vertex="1">
          <mxGeometry x="-3370" y="-2130" width="110" height="30" as="geometry" />
        </mxCell>
        <mxCell id="i0FzcZnS4csEfGver0WR-146" value="" style="endArrow=classic;html=1;rounded=1;exitX=0.103;exitY=1.12;exitDx=0;exitDy=0;exitPerimeter=0;" parent="1" source="i0FzcZnS4csEfGver0WR-144" edge="1">
          <mxGeometry width="50" height="50" relative="1" as="geometry">
            <mxPoint x="-3360" y="-2090" as="sourcePoint" />
            <mxPoint x="-3370" y="-2050" as="targetPoint" />
          </mxGeometry>
        </mxCell>
        <mxCell id="i0FzcZnS4csEfGver0WR-147" value="&lt;font style=&quot;font-size: 25px;&quot; face=&quot;Comic Sans MS&quot;&gt;موعد&lt;/font&gt;" style="text;html=1;align=center;verticalAlign=middle;whiteSpace=wrap;rounded=0;dashed=1;strokeColor=default;" parent="1" vertex="1">
          <mxGeometry x="-3960" y="-1720" width="110" height="30" as="geometry" />
        </mxCell>
        <mxCell id="i0FzcZnS4csEfGver0WR-148" value="" style="endArrow=classic;html=1;rounded=1;exitX=1;exitY=0.25;exitDx=0;exitDy=0;" parent="1" source="i0FzcZnS4csEfGver0WR-147" edge="1">
          <mxGeometry width="50" height="50" relative="1" as="geometry">
            <mxPoint x="-3840" y="-1710" as="sourcePoint" />
            <mxPoint x="-3650" y="-1740" as="targetPoint" />
          </mxGeometry>
        </mxCell>
        <mxCell id="i0FzcZnS4csEfGver0WR-149" value="&lt;font style=&quot;font-size: 25px;&quot; face=&quot;Comic Sans MS&quot;&gt;سجل طبي&lt;/font&gt;" style="text;html=1;align=center;verticalAlign=middle;whiteSpace=wrap;rounded=0;dashed=1;strokeColor=default;" parent="1" vertex="1">
          <mxGeometry x="-3530.98" y="-1520" width="110" height="30" as="geometry" />
        </mxCell>
        <mxCell id="i0FzcZnS4csEfGver0WR-150" value="" style="endArrow=classic;html=1;rounded=1;exitX=0.103;exitY=1.12;exitDx=0;exitDy=0;exitPerimeter=0;" parent="1" edge="1">
          <mxGeometry width="50" height="50" relative="1" as="geometry">
            <mxPoint x="-3520" y="-1490" as="sourcePoint" />
            <mxPoint x="-3540" y="-1444" as="targetPoint" />
          </mxGeometry>
        </mxCell>
        <mxCell id="i0FzcZnS4csEfGver0WR-151" value="&lt;font style=&quot;font-size: 25px;&quot; face=&quot;Comic Sans MS&quot;&gt;وصفة طبيه&lt;/font&gt;" style="text;html=1;align=center;verticalAlign=middle;whiteSpace=wrap;rounded=0;dashed=1;strokeColor=default;" parent="1" vertex="1">
          <mxGeometry x="-3740" y="-1050" width="110" height="30" as="geometry" />
        </mxCell>
        <mxCell id="i0FzcZnS4csEfGver0WR-152" value="" style="endArrow=classic;html=1;rounded=1;exitX=0.867;exitY=1.088;exitDx=0;exitDy=0;exitPerimeter=0;" parent="1" source="i0FzcZnS4csEfGver0WR-151" edge="1">
          <mxGeometry width="50" height="50" relative="1" as="geometry">
            <mxPoint x="-3620" y="-1000" as="sourcePoint" />
            <mxPoint x="-3630" y="-980" as="targetPoint" />
          </mxGeometry>
        </mxCell>
        <mxCell id="i0FzcZnS4csEfGver0WR-153" value="&lt;font style=&quot;font-size: 25px;&quot; face=&quot;Comic Sans MS&quot;&gt;المدفوعات&lt;/font&gt;" style="text;html=1;align=center;verticalAlign=middle;whiteSpace=wrap;rounded=0;dashed=1;strokeColor=default;" parent="1" vertex="1">
          <mxGeometry x="-3220" y="-1810" width="110" height="30" as="geometry" />
        </mxCell>
        <mxCell id="i0FzcZnS4csEfGver0WR-155" value="" style="endArrow=classic;html=1;rounded=1;exitX=0.818;exitY=1;exitDx=0;exitDy=0;exitPerimeter=0;" parent="1" source="i0FzcZnS4csEfGver0WR-153" edge="1">
          <mxGeometry width="50" height="50" relative="1" as="geometry">
            <mxPoint x="-3119" y="-1750" as="sourcePoint" />
            <mxPoint x="-3100" y="-1730" as="targetPoint" />
          </mxGeometry>
        </mxCell>
        <mxCell id="fFWgREcMKCbxpo3257Eq-183" value="&lt;font style=&quot;font-size: 30px;&quot; face=&quot;Comic Sans MS&quot;&gt;Entity Relationship Diagram&lt;/font&gt;" style="text;html=1;align=center;verticalAlign=middle;whiteSpace=wrap;rounded=0;" parent="1" vertex="1">
          <mxGeometry x="-3780" y="-690" width="400" height="30" as="geometry" />
        </mxCell>
        <mxCell id="A2gajMCmao1h56yZIuoA-1" value="Patient" style="rounded=1;whiteSpace=wrap;html=1;fillColor=#e1d5e7;strokeColor=#9673a6;fontFamily=Comic Sans MS;fontSize=15;" vertex="1" parent="1">
          <mxGeometry x="-4330" y="-2000" width="120" height="60" as="geometry" />
        </mxCell>
        <mxCell id="A2gajMCmao1h56yZIuoA-2" value="&lt;u&gt;Patient&lt;/u&gt;&lt;u style=&quot;background-color: transparent; color: light-dark(rgb(0, 0, 0), rgb(255, 255, 255));&quot;&gt;ID&lt;/u&gt;" style="ellipse;whiteSpace=wrap;html=1;rounded=1;fillColor=#fff2cc;strokeColor=#d6b656;fontSize=15;fontFamily=Comic Sans MS;" vertex="1" parent="1">
          <mxGeometry x="-4320" y="-1830" width="100" height="70" as="geometry" />
        </mxCell>
        <mxCell id="A2gajMCmao1h56yZIuoA-3" value="Booking" style="rhombus;whiteSpace=wrap;html=1;fontSize=15;fontFamily=Comic Sans MS;fillColor=#6a00ff;strokeColor=#3700CC;rounded=1;fontColor=#ffffff;" vertex="1" parent="1">
          <mxGeometry x="-4190" y="-1910" width="80" height="80" as="geometry" />
        </mxCell>
        <mxCell id="A2gajMCmao1h56yZIuoA-6" value="" style="triangle;whiteSpace=wrap;html=1;rounded=1;rotation=-90;fillColor=#008a00;strokeColor=#005700;fontColor=#ffffff;fontSize=14;" vertex="1" parent="1">
          <mxGeometry x="-4470" y="-1880" width="60" height="80" as="geometry" />
        </mxCell>
        <mxCell id="A2gajMCmao1h56yZIuoA-7" value="&lt;font style=&quot;font-size: 15px; color: rgb(255, 255, 255);&quot; face=&quot;Comic Sans MS&quot;&gt;IS&lt;/font&gt;" style="text;html=1;align=center;verticalAlign=middle;whiteSpace=wrap;rounded=1;" vertex="1" parent="1">
          <mxGeometry x="-4470" y="-1845" width="60" height="30" as="geometry" />
        </mxCell>
        <mxCell id="A2gajMCmao1h56yZIuoA-8" value="status" style="ellipse;whiteSpace=wrap;html=1;rounded=1;fillColor=#fff2cc;strokeColor=#d6b656;fontSize=15;fontFamily=Comic Sans MS;" vertex="1" parent="1">
          <mxGeometry x="-3508" y="-2290" width="100" height="70" as="geometry" />
        </mxCell>
      </root>
    </mxGraphModel>
  </diagram>
</mxfile>
